<?xml version="1.0" encoding="UTF-8"?>
<svg width="232px" height="277px" viewBox="23 34 232 277" xmlns="http://www.w3.org/2000/svg" xmlns:xlink="http://www.w3.org/1999/xlink" version="1.1">
 <path id="Path" d="M78.008 310 C77.433 310.007 76.889 309.68 76.723 309.109 L74.67 301.107 70.952 304.721 C70.292 305.155 69.388 305.182 68.997 304.754 68.605 304.326 68.664 303.359 69.008 303.031 L73.928 298.307 72.219 291.625 62.422 301.305 C61.847 301.676 61.144 301.88 60.709 301.221 60.151 300.919 60.136 299.942 60.795 299.508 L71.542 288.908 70.167 283.623 56.098 279.598 52.069 283.844 55.735 298.141 C55.939 298.843 55.562 299.392 54.86 299.596 54.167 299.726 53.608 299.423 53.405 298.721 L50.147 285.83 45.153 290.545 46.776 296.764 C46.98 297.466 46.375 298.058 45.672 298.262 45.284 298.359 44.42 298.091 44.29 297.398 L43.002 292.574 37.362 298.174 C36.933 298.565 36.198 298.463 35.639 298.162 35.205 297.503 35.233 296.757 35.651 296.439 L41.719 290.449 35.922 288.98 C35.374 288.606 34.929 288.021 35.073 287.516 35.227 286.937 35.572 286.608 36.034 286.521 36.275 286.405 36.506 286.361 36.549 286.592 L43.639 288.463 48.633 283.748 34.795 279.68 C34.049 279.653 33.616 278.994 33.948 278.215 34.062 277.931 34.49 277.539 34.721 277.496 34.952 277.453 35.182 277.409 35.413 277.365 L50.555 281.762 54.471 277.801 50.838 263.809 44.768 262.152 34.133 272.467 C33.591 273.142 32.845 273.116 32.411 272.457 31.862 272.082 31.891 271.336 32.497 270.744 L42.094 261.412 35.475 259.381 30.788 264.062 C30.369 264.38 29.623 264.354 29.001 263.969 28.629 263.393 28.656 262.647 29.084 262.256 L32.573 258.684 25.366 256.572 C24.851 256.502 24.489 255.853 24.516 255.107 24.704 254.833 25.132 254.442 25.52 254.346 25.751 254.302 25.75 254.301 25.981 254.258 L33.704 256.439 32.243 250.693 C32.082 250.222 32.351 249.359 33.043 249.229 33.746 249.025 34.652 249.523 34.739 249.984 L36.608 257.139 43.237 259.096 39.604 245.104 C39.4 244.401 39.787 243.779 40.479 243.648 41.182 243.445 41.73 243.821 41.934 244.523 L45.899 259.91 51.465 261.42 61.793 251.141 60.215 245.15 45.475 241.109 C44.917 240.808 44.481 240.149 44.739 239.359 44.883 238.854 45.47 238.41 46.333 238.678 L59.538 242.434 57.829 235.754 51.252 233.953 C50.62 233.642 50.259 232.992 50.286 232.246 50.473 231.972 50.892 231.654 51.364 231.494 51.595 231.451 51.752 231.397 51.983 231.354 L57.086 232.953 55.174 225.568 C55.088 225.107 55.575 224.274 56.278 224.07 56.74 223.984 57.646 224.484 57.733 224.945 L59.647 232.328 63.563 228.367 C63.908 228.04 64.654 228.066 65.286 228.377 65.647 229.026 65.618 229.773 65.19 230.164 L60.323 235.045 62.106 241.736 71.819 232.121 C72.006 231.847 72.248 231.729 72.479 231.686 72.941 231.599 73.455 231.67 73.729 231.857 74.164 232.517 74.137 233.262 73.762 233.811 L62.774 244.527 64.354 250.516 78.358 254.457 82.504 250.451 78.538 235.064 C78.334 234.362 78.636 233.803 79.338 233.6 80.041 233.396 80.894 233.739 81.024 234.432 L84.657 248.422 89.522 243.541 87.653 236.389 C87.566 235.927 87.835 235.064 88.528 234.934 89.23 234.73 89.894 235.345 89.981 235.807 L91.444 241.555 97.167 235.891 C97.397 235.847 97.555 235.795 97.555 235.795 98.027 235.635 98.605 235.789 98.879 235.977 99.25 236.552 99.455 237.253 98.795 237.687 L93.575 242.971 98.321 244.445 C99.067 244.472 99.27 245.176 99.243 245.922 98.868 246.47 98.282 246.914 97.704 246.76 L91.348 244.99 86.545 249.955 99.487 253.451 C100.266 253.783 100.636 254.358 100.325 254.99 100.298 255.736 99.649 256.098 98.86 255.84 L84.551 251.932 80.059 256.264 83.682 270.33 88.942 271.875 100.075 260.654 C100.306 260.611 100.537 260.568 100.778 260.451 101.24 260.364 101.513 260.551 101.788 260.738 102.463 261.281 102.435 262.026 101.776 262.461 L91.604 272.689 98.19 274.416 103.53 269.373 C103.727 269.025 103.958 268.982 103.958 268.982 104.419 268.896 104.935 268.966 105.252 269.385 105.644 269.813 105.542 270.549 105.241 271.107 L101.094 275.113 109.09 277.482 C109.836 277.51 110.041 278.211 109.94 278.947 109.859 279.536 108.979 279.94 108.463 279.869 L100.815 277.697 102.03 282.512 C102.233 283.214 101.859 283.763 101.157 283.967 100.464 284.097 99.905 283.796 99.702 283.094 L98.153 276.885 91.567 275.158 94.825 288.049 C95.028 288.751 94.496 289.353 93.793 289.557 93.101 289.687 92.542 289.386 92.338 288.684 L88.674 274.387 83.065 272.645 72.663 282.916 74.038 288.201 88.852 292.254 C89.357 292.398 89.834 293.288 89.69 293.793 89.432 294.582 88.729 294.786 87.993 294.686 L74.778 291.002 76.489 297.684 83.073 299.408 C83.578 299.552 84.067 300.37 83.922 300.875 83.654 301.738 82.963 301.867 82.448 301.797 L77.165 300.4 79.282 308.486 C79.485 309.189 78.87 309.855 78.409 309.941 78.277 309.98 78.141 309.998 78.008 310 Z M71.024 281.191 L71.985 280.199 80.391 271.904 81.352 270.91 81.018 269.516 78.065 258.24 77.731 256.846 76.436 256.443 65.032 253.232 63.737 252.83 62.536 253.939 54.284 262.182 53.092 263.219 53.51 264.549 56.381 275.889 56.725 277.209 58.325 277.578 69.424 280.822 71.024 281.191 Z M66.774 176.959 C66.446 176.949 66.121 176.863 65.84 176.723 64.941 176.273 64.492 175.373 64.379 174.924 64.379 174.474 64.379 174.026 64.829 173.576 L72.135 159.863 62.694 160.201 C61.345 160.201 60.333 159.302 60.333 157.953 60.333 156.604 61.12 155.705 62.469 155.705 L74.608 155.367 80.227 144.352 55.95 145.139 C54.601 145.139 53.588 144.239 53.588 142.891 53.588 141.991 54.376 140.643 55.725 140.643 L82.7 139.857 91.692 123.334 70.674 126.256 82.7 108.723 63.817 109.285 51.004 133.113 C50.667 134.462 49.318 134.912 47.969 134.125 47.52 133.675 47.07 133.225 46.958 132.326 46.958 131.877 46.958 131.426 46.958 130.977 L58.872 109.51 46.733 109.846 40.776 120.299 C40.326 121.76 39.091 122.21 37.629 121.311 37.18 120.861 36.729 120.411 36.729 119.512 36.729 119.062 36.729 118.614 37.178 118.164 L41.338 109.959 25.602 110.408 C24.253 110.521 23.354 109.622 23.354 108.273 23.354 106.925 24.14 106.025 25.489 105.912 L41.225 105.463 36.055 97.596 C35.606 96.247 35.943 94.898 36.842 94.336 38.191 93.437 39.54 93.887 40.102 95.123 L46.62 105.35 58.309 105.014 45.608 84.221 C45.046 82.872 45.496 81.522 46.395 81.072 47.294 80.623 48.644 80.511 49.543 81.859 L63.706 104.789 82.588 104.227 69.549 87.592 90.68 89.166 80.79 73.316 53.813 74.104 C52.464 74.104 51.677 73.204 51.565 71.855 51.453 70.507 52.353 69.607 53.702 69.607 L77.979 68.934 71.797 58.256 59.659 58.594 C58.31 58.706 57.411 57.806 57.411 56.457 57.298 55.558 58.197 54.21 59.545 54.098 L68.987 53.873 60.895 40.609 C60.445 40.16 60.446 39.709 60.446 39.26 60.446 38.81 60.895 37.912 61.344 37.463 62.581 36.901 63.929 36.901 64.491 38.25 L72.92 51.512 77.192 43.307 C78.091 42.295 79.441 41.845 80.34 42.295 81.689 43.082 82.139 44.432 81.352 45.443 L75.731 55.896 81.913 66.461 93.491 44.543 C94.277 43.644 95.625 43.195 96.524 43.645 97.985 44.431 97.985 45.78 97.536 46.68 L84.723 70.957 94.727 86.805 102.594 66.799 111.811 86.355 120.69 69.832 106.528 46.455 C106.078 46.005 106.079 46.004 106.079 45.555 106.079 44.655 106.416 43.756 107.315 43.307 108.214 42.857 109.563 43.195 110.575 44.094 L123.276 65.338 128.784 54.322 122.713 44.207 C122.151 43.757 122.151 43.307 122.151 42.857 122.151 42.408 122.601 41.508 123.501 41.059 124.4 40.497 125.748 40.947 126.198 41.846 L131.368 49.826 139.124 36.002 C139.461 34.653 140.81 34.652 141.709 35.102 143.058 35.439 143.62 36.788 142.721 38.137 L135.528 51.85 144.967 51.625 C146.316 51.625 147.215 52.861 147.215 53.76 147.328 55.109 146.429 56.121 145.081 56.121 L132.942 56.457 126.985 67.473 151.711 66.686 C153.06 66.686 153.959 67.585 153.959 68.934 153.959 69.833 153.173 71.182 151.825 71.182 L124.85 71.969 115.858 88.49 136.876 85.568 124.85 102.99 143.731 102.428 156.545 78.713 C156.883 77.364 158.232 76.914 159.581 77.701 160.592 78.151 161.042 79.499 160.592 80.848 L148.678 102.316 160.817 101.979 166.774 91.414 C167.224 90.065 168.572 89.614 169.92 90.514 170.82 90.851 171.27 92.2 170.483 93.549 L166.211 101.867 181.948 101.416 C183.297 101.304 184.083 102.204 184.196 103.553 184.308 104.901 183.408 105.801 182.059 105.801 L166.325 106.361 171.045 114.23 C171.945 115.579 171.607 116.928 170.708 117.49 169.359 118.389 168.011 117.939 167.561 116.59 L160.928 106.475 148.79 106.812 161.94 127.605 C162.502 128.954 162.052 130.302 161.153 130.752 160.254 131.202 158.905 131.314 158.006 129.965 L143.844 106.924 124.961 107.486 138.112 124.232 116.87 122.66 126.76 138.508 153.735 137.721 C155.084 137.721 155.984 138.958 156.096 139.857 156.096 141.206 155.197 142.217 153.848 142.217 L129.569 142.891 135.752 153.568 147.891 153.232 C149.24 153.12 150.138 154.018 150.251 155.367 150.251 156.266 149.351 157.616 148.002 157.729 L138.561 157.953 146.655 171.215 C147.554 172.564 147.216 173.914 146.317 174.363 144.968 174.813 143.619 174.925 143.057 173.576 L134.627 160.312 129.907 168.518 C129.457 169.417 128.109 169.979 127.209 169.529 126.31 169.08 125.86 168.18 125.86 167.73 125.86 167.281 125.861 166.832 126.198 166.383 L131.817 155.93 125.635 145.252 114.17 167.17 C113.271 168.182 111.923 168.631 111.024 168.182 110.125 167.844 109.676 166.944 109.563 166.045 109.563 165.595 109.563 165.146 110.012 165.146 L122.827 140.869 112.934 125.02 104.956 145.027 95.85 125.469 86.858 141.879 101.02 165.371 C101.919 166.27 101.584 167.618 100.235 168.518 99.336 168.967 97.986 168.63 97.086 167.73 L84.274 146.488 78.766 157.504 84.948 167.619 C85.847 168.518 85.398 169.866 84.499 170.766 83.262 171.328 81.802 170.878 81.352 169.979 L76.18 161.998 68.538 175.711 C68.229 176.638 67.495 176.981 66.774 176.959 Z M246.463 173.43 C242.258 173.43 238.848 170.02 238.848 165.814 238.848 161.609 242.258 158.199 246.463 158.199 250.669 158.199 254.079 161.609 254.079 165.814 254.079 170.02 250.669 173.43 246.463 173.43 Z M104.618 133.787 L111.362 117.826 128.446 119.176 117.768 105.463 127.659 91.301 110.575 93.549 102.932 78.037 96.637 93.998 79.104 92.65 89.893 106.361 79.889 120.523 97.424 118.275 104.618 133.787 Z M228.227 96.348 C223.221 96.348 219.163 92.29 219.163 87.283 219.163 82.277 223.221 78.217 228.227 78.217 233.233 78.217 237.293 82.277 237.293 87.283 237.293 92.29 233.233 96.348 228.227 96.348 Z" fill="#ffffff" fill-opacity="1" stroke="none"/>
</svg>
