<?xml version="1.0" encoding="UTF-8"?>
<svg width="591px" height="678px" viewBox="1179 341 591 678" xmlns="http://www.w3.org/2000/svg" xmlns:xlink="http://www.w3.org/1999/xlink" version="1.1">
 <!-- Generated by Pixelmator Pro 2.3.1 -->
 <path id="Path" d="M1267.739 1018.627 C1266.681 1018.65 1265.335 1017.281 1265.22 1016.357 L1264.981 1000.275 1256.405 1005.518 C1255.214 1006.232 1253.903 1005.875 1253.188 1004.684 1252.474 1003.492 1252.712 1002.182 1253.903 1001.467 L1264.981 994.678 1264.505 981.098 1241.634 994.916 C1240.443 995.75 1238.893 995.035 1238.179 993.725 1237.345 992.533 1237.702 991.223 1238.894 990.508 L1264.147 975.141 1264.267 963.35 1238.536 949.531 1229.126 955.129 1229.96 985.861 C1230.079 986.933 1228.649 988.363 1227.696 988.482 1225.91 988.363 1225.196 987.172 1224.839 985.623 L1224.243 958.107 1212.45 965.373 1212.927 978.953 C1213.046 980.025 1211.616 981.455 1210.544 981.574 1208.876 981.455 1208.161 980.263 1208.042 979.191 L1207.565 968.352 1193.271 976.928 C1192.079 977.762 1190.532 977.047 1190.056 976.213 1189.341 975.022 1189.341 973.236 1190.651 972.521 L1204.825 963.826 1195.653 958.822 C1194.462 957.869 1193.866 956.082 1194.462 955.129 1195.058 954.176 1196.964 953.58 1197.798 954.176 L1209.71 960.848 1221.503 953.699 1197.321 940.478 C1196.249 939.526 1195.415 938.334 1196.368 937.143 1196.726 935.832 1198.632 935.236 1199.823 936.189 L1226.386 950.723 1235.798 945.004 1235.202 915.701 1224.72 910.459 1199.585 925.826 C1198.275 926.541 1196.964 926.183 1196.249 924.992 1195.534 923.801 1195.892 922.49 1197.083 921.656 L1219.835 907.84 1207.923 901.168 1196.964 907.84 C1195.773 908.554 1194.223 907.84 1193.39 906.648 1192.913 905.815 1193.032 904.146 1194.224 903.312 L1202.802 898.191 1188.626 890.566 C1187.792 889.971 1187.435 888.543 1187.792 887.232 1188.745 886.041 1190.175 885.684 1191.128 886.279 L1206.136 894.498 1205.54 882.467 C1205.897 881.156 1206.851 880.084 1207.923 879.965 1208.995 879.846 1209.829 880.442 1210.306 881.275 1210.544 881.633 1210.901 882.109 1210.425 882.348 L1211.021 897 1222.933 903.789 1222.694 874.844 C1222.337 873.414 1223.29 872.223 1224.958 872.342 1225.673 872.461 1226.505 873.057 1226.862 873.414 1227.101 873.891 1227.339 874.248 1227.577 874.725 L1227.815 906.291 1237.702 911.531 1262.479 896.404 1262.122 883.777 1236.153 869.482 C1234.486 868.768 1234.249 867.34 1235.202 866.148 1235.44 864.838 1236.988 864.481 1238.536 865.195 L1262.003 878.178 1262.003 864.361 1250.329 858.047 C1249.376 857.451 1249.138 856.023 1249.376 854.713 1250.329 853.522 1251.878 853.164 1252.712 853.76 L1261.646 858.404 1261.526 843.396 C1261.407 842.324 1262.361 841.252 1263.909 840.894 1264.505 841.014 1265.458 841.61 1265.935 842.443 1266.173 842.801 1266.173 842.801 1266.411 843.277 L1266.649 859.238 1276.894 853.045 C1277.608 852.568 1279.394 852.569 1280.108 853.879 1280.823 855.07 1280.347 856.975 1279.632 857.57 L1267.007 865.195 1267.007 879.131 1291.901 864.004 C1293.093 863.289 1294.403 863.528 1295.118 864.719 1295.833 866.029 1295.595 867.338 1294.403 868.053 L1267.126 884.611 1267.364 896.166 1293.212 910.102 1303.694 903.551 1302.86 872.937 C1303.218 871.627 1304.171 870.436 1305.839 870.555 1306.911 870.436 1308.103 871.389 1307.983 873.057 L1308.579 900.691 1320.372 893.426 1319.896 879.846 C1320.253 878.535 1321.204 877.346 1322.634 876.988 1323.348 877.227 1324.183 877.701 1324.778 878.535 1325.017 879.012 1325.255 879.369 1325.493 879.727 L1325.255 890.447 1338.358 882.586 C1339.192 881.99 1341.099 882.586 1341.813 883.777 1342.29 884.611 1341.813 886.518 1341.099 886.994 L1327.995 894.975 1337.882 900.096 C1338.835 900.691 1339.073 902.121 1338.835 903.432 1337.763 904.623 1336.333 904.98 1335.499 904.385 L1323.11 897.953 1311.319 905.1 1335.499 918.322 C1336.214 918.441 1336.452 918.799 1336.69 919.275 1337.167 920.109 1337.286 921.18 1337.167 921.775 1336.095 922.967 1334.667 923.205 1333.356 922.967 L1306.435 908.078 1295.833 914.51 1296.429 943.812 1306.435 949.412 1333.712 932.734 C1335.022 932.02 1336.333 932.377 1337.048 933.568 1337.763 934.76 1337.643 936.428 1336.452 937.262 L1311.677 952.391 1323.944 958.822 1336.571 951.08 C1337.405 950.604 1339.073 950.723 1339.907 951.914 1340.622 953.105 1339.907 954.652 1339.073 955.129 L1328.829 961.324 1343.005 968.947 C1343.243 969.424 1343.481 969.781 1343.481 969.781 1343.958 970.615 1344.075 971.688 1343.956 972.283 1342.884 973.474 1341.694 974.189 1340.503 973.236 L1327.399 966.207 1327.399 976.213 C1327.638 977.761 1326.446 978.477 1325.017 978.834 1323.706 978.477 1322.517 977.523 1322.397 976.451 L1322.159 963.23 1309.89 956.797 1310.604 983.6 C1310.604 985.386 1309.651 986.457 1308.341 986.219 1306.792 986.576 1305.72 985.506 1305.72 983.838 L1305.005 954.176 1293.927 948.102 1269.149 963.111 1269.269 974.309 1297.144 989.078 C1297.382 989.435 1297.739 989.912 1297.978 990.269 1298.454 991.103 1298.216 991.699 1298.097 992.414 1297.382 993.963 1295.952 994.32 1294.761 993.367 L1269.269 979.787 1269.745 993.486 1282.61 1000.752 C1283.206 1000.871 1283.444 1001.348 1283.444 1001.348 1283.921 1002.181 1284.04 1003.135 1283.444 1004.088 1282.968 1005.041 1281.419 1005.279 1280.108 1005.041 L1270.103 999.441 1270.103 1016.119 C1270.46 1017.549 1269.27 1018.262 1267.841 1018.619 1267.807 1018.623 1267.773 1018.626 1267.739 1018.627 Z M1629.86 1006.301 C1627.704 1006.332 1624.685 1004.138 1624.517 1001.943 L1620.376 975.658 1607.233 993.301 C1606.153 996.181 1602.552 996.902 1600.212 994.922 1597.331 993.842 1596.43 990.241 1598.591 987.9 L1617.136 961.434 1611.194 925.787 1568.347 985.019 C1567.267 987.9 1563.666 988.619 1561.325 986.639 1558.445 985.558 1557.544 981.96 1559.704 979.619 L1609.034 911.924 1596.972 838.471 1539.181 885.459 1531.259 968.816 C1531.259 968.816 1530.899 969.717 1530.899 969.717 1530.359 971.697 1527.658 972.777 1525.497 972.957 1523.517 972.237 1520.997 970.256 1521.177 967.195 L1528.378 894.281 1500.292 917.146 1496.692 949.191 C1496.692 949.191 1496.331 950.092 1496.331 950.092 1495.611 952.072 1493.091 953.154 1490.751 953.514 1488.951 952.793 1486.43 950.633 1486.61 947.572 L1488.409 925.607 1467.886 942.531 C1465.905 945.052 1463.205 943.971 1460.685 941.99 1458.164 940.01 1459.605 936.23 1461.226 934.609 L1481.749 917.686 1459.784 915.705 C1457.984 915.165 1455.463 913.006 1455.644 909.945 1456.724 907.065 1458.704 904.543 1461.765 904.723 L1493.991 908.324 1521.897 885.459 1449.163 878.258 C1446.463 877.358 1443.942 875.197 1444.122 872.137 1445.022 869.256 1447.183 866.736 1450.243 866.916 L1531.259 875.018 1589.05 827.848 1519.376 801.383 1442.681 835.949 C1439.98 837.209 1437.281 836.13 1436.021 833.43 1434.94 830.909 1436.02 828.028 1438.54 826.768 L1506.233 796.342 1472.206 783.559 1443.581 796.521 C1441.061 797.602 1437.999 796.702 1436.919 794.002 1435.839 791.301 1436.92 788.42 1439.44 787.34 L1459.063 778.518 1434.579 769.336 C1431.699 768.256 1430.438 765.556 1431.519 762.676 1432.599 759.975 1435.66 757.814 1438.001 759.795 L1464.466 769.877 1455.644 750.252 C1454.563 747.731 1455.645 744.852 1458.165 743.771 1460.866 742.511 1463.565 743.592 1464.825 746.293 L1477.608 774.918 1511.634 787.701 1481.208 720.187 C1479.948 717.487 1481.029 714.606 1483.729 713.525 1486.25 712.265 1489.13 713.346 1490.21 716.047 L1524.776 792.742 1595.532 819.566 1583.47 745.932 1515.956 696.602 C1513.075 695.521 1512.355 692.101 1514.335 689.58 1515.415 686.699 1519.016 685.98 1521.356 687.961 L1580.589 730.809 1575.728 695.521 1549.263 676.978 C1546.562 675.898 1545.661 672.298 1547.642 669.777 1548.722 667.077 1552.322 666.176 1554.843 668.156 L1572.487 681.478 1568.347 655.014 C1568.167 652.853 1569.606 649.074 1572.847 649.254 1575.007 648.894 1578.428 651.234 1578.608 653.574 L1582.749 679.859 1595.892 662.215 C1596.972 659.334 1600.393 658.615 1602.913 660.596 1604.533 662.216 1605.614 664.916 1604.894 666.717 1604.894 666.717 1604.532 667.617 1604.532 667.617 L1585.989 694.082 1591.751 729.728 1634.778 670.498 C1635.858 667.617 1639.459 666.897 1641.8 668.877 1643.42 670.497 1644.5 673.198 1643.78 674.998 1643.78 674.998 1643.421 676.078 1643.421 676.078 L1594.091 743.592 1606.153 817.047 1663.944 770.057 1671.687 686.701 C1671.867 683.46 1674.927 681.48 1678.708 679.68 1680.688 680.4 1683.028 682.378 1683.028 685.619 L1675.827 758.353 1703.913 735.49 1707.513 703.443 C1708.233 701.643 1710.213 699.123 1713.454 699.303 1715.254 700.023 1717.775 702.003 1717.595 705.244 L1715.796 727.209 1736.14 710.105 C1738.3 707.585 1741 708.664 1743.521 710.644 1745.141 712.445 1745.321 714.606 1744.601 716.406 1744.24 717.486 1742.98 718.026 1742.62 718.926 L1722.097 736.029 1744.062 737.83 C1745.862 738.55 1748.382 740.531 1748.202 743.771 1748.202 743.771 1747.841 744.672 1747.841 744.672 1747.121 746.652 1744.601 747.732 1742.261 747.912 L1710.214 744.492 1682.128 767.176 1755.042 774.377 C1756.842 775.097 1759.363 777.078 1759.183 780.318 1759.183 780.318 1758.823 781.219 1758.823 781.219 1758.103 783.019 1755.584 784.279 1753.243 784.459 L1670.065 776.537 1612.274 823.707 1681.948 850.172 1758.644 815.605 C1761.344 814.525 1764.225 815.606 1765.306 818.127 1765.846 819.387 1766.205 821.727 1765.845 822.627 1765.125 824.607 1763.685 825.147 1762.425 825.687 L1694.911 856.113 1728.757 869.076 1757.384 856.113 C1759.904 855.033 1762.784 856.114 1764.044 858.635 1764.584 859.895 1765.125 861.334 1764.405 863.135 1763.685 864.935 1762.423 865.655 1761.163 866.195 L1741.54 875.018 1766.204 884.199 C1768.905 885.279 1770.165 887.979 1769.085 890.68 1768.005 893.56 1765.305 894.82 1762.604 893.74 L1738.12 884.379 1746.761 903.822 C1748.021 906.523 1746.762 909.404 1744.241 910.484 1741.721 911.565 1738.839 910.665 1737.759 907.965 L1724.796 879.338 1690.95 866.557 1720.476 933.709 C1721.556 936.409 1720.476 939.111 1717.956 940.371 1715.256 941.451 1712.554 940.37 1711.294 937.85 L1676.728 861.154 1607.054 834.689 1618.937 908.324 1686.63 957.654 C1688.07 959.275 1689.331 961.795 1688.61 963.775 1688.61 963.775 1688.249 964.676 1688.249 964.676 1687.169 967.556 1683.568 968.275 1681.048 966.295 L1621.817 923.447 1627.757 959.094 1654.224 977.639 C1655.664 979.259 1656.924 981.959 1656.204 983.76 1656.204 983.76 1655.843 984.658 1655.843 984.658 1654.762 987.539 1651.162 988.44 1648.642 986.279 L1630.999 973.137 1635.14 999.602 C1635.68 1000.862 1635.32 1001.762 1634.96 1002.662 1634.24 1004.642 1632.619 1006.084 1630.278 1006.264 1630.143 1006.286 1630.004 1006.299 1629.86 1006.301 Z M1266.649 959.061 L1269.149 957.631 1289.044 945.48 1291.544 943.932 1291.425 941.193 1290.948 917.488 1290.948 914.748 1288.329 913.08 1267.722 902.121 1264.981 900.453 1262.599 901.883 1242.587 914.033 1240.204 915.582 1240.442 918.68 1240.681 942.027 1240.919 945.242 1243.421 946.553 1264.267 957.75 1266.649 959.061 Z M1192.356 760.578 C1185.486 760.578 1179.915 755.009 1179.915 748.139 1179.915 741.268 1185.486 735.697 1192.356 735.697 1199.227 735.697 1204.796 741.268 1204.796 748.139 1204.796 755.009 1199.227 760.578 1192.356 760.578 Z M1358.206 633.684 C1350.416 633.684 1344.101 627.368 1344.101 619.578 1344.101 611.788 1350.416 605.473 1358.206 605.473 1365.996 605.473 1372.312 611.788 1372.312 619.578 1372.312 627.368 1365.996 633.684 1358.206 633.684 Z M1620.962 370.283 C1613.052 370.283 1606.642 363.871 1606.642 355.961 1606.642 348.051 1613.052 341.639 1620.962 341.639 1628.872 341.639 1635.284 348.051 1635.284 355.961 1635.284 363.871 1628.872 370.283 1620.962 370.283 Z" fill="#ffffff" fill-opacity="1" stroke="none"/>
</svg>
