<?xml version="1.0" encoding="UTF-8"?>
<svg width="500px" height="500px" viewBox="0 0 500 500" xmlns="http://www.w3.org/2000/svg" xmlns:xlink="http://www.w3.org/1999/xlink" version="1.1">
 <path id="Path" d="M439 250.5 C439 145.842 354.158 61 249.5 61 144.842 61 60 145.842 60 250.5 60 283.467 68.418 314.468 83.223 341.471 84.029 342.941 148.459 305.208 186 276 222.674 247.467 272.082 185.522 273 187 273.099 187.159 254.936 161.99 280 141 300.112 124.157 319.019 133.948 329 142 341.036 151.709 347.995 170.418 337 187 328.101 200.42 315.093 204.823 305 206 300.029 206.58 294.692 204.468 293 206 262.158 233.936 233.428 269.452 210 289 175.082 318.135 92.798 357.101 93.6 358.258 100.783 368.63 108.974 378.251 118.032 386.978 119.142 388.049 163.641 362.67 204 331 239.79 302.915 269.544 269.627 273 268 273.117 267.945 265.112 257.885 272 255 286.179 249.062 310.313 240.217 314 242 318.909 244.375 312.644 277.385 305 290 301.403 295.936 295.59 285.482 294 287 276.26 303.948 235.856 338.024 200 362 164.144 385.976 132.837 399.852 134.167 400.874 144.39 408.726 155.437 415.56 167.155 421.222 171.792 423.463 236.293 380.585 253 365 253.355 364.669 245.871 354.134 250 351 269.984 335.832 286.282 320.326 292 326 297.227 331.186 315.495 351.081 317 358 317.676 361.108 313.613 364.834 311 368 305.138 375.101 297.69 381.139 291 385 287.705 386.902 285.823 388.542 282 389 276.959 389.604 272.202 379.827 269 383 248.906 402.913 193.533 431.631 196.776 432.569 213.514 437.407 231.204 440 249.5 440 354.158 440 439 355.158 439 250.5 Z" fill="#ffffff" fill-opacity="1" stroke="none"/>
 <path id="Ellipse" d="M323 168.5 C323 158.283 314.717 150 304.5 150 294.283 150 286 158.283 286 168.5 286 178.717 294.283 187 304.5 187 314.717 187 323 178.717 323 168.5 Z" fill="#ffffff" fill-opacity="1" stroke="none"/>
</svg>
