<?xml version="1.0" encoding="UTF-8"?>
<svg width="674px" height="356px" viewBox="1315 -16 674 356" xmlns="http://www.w3.org/2000/svg" xmlns:xlink="http://www.w3.org/1999/xlink" version="1.1">
 <!-- Generated by Pixelmator Pro 2.3.1 -->
 <path id="Path" d="M1741.298 339.186 C1734.115 339.186 1728.291 333.362 1728.291 326.178 1728.291 318.994 1734.115 313.17 1741.298 313.17 1748.482 313.17 1754.306 318.994 1754.306 326.178 1754.306 333.362 1748.482 339.186 1741.298 339.186 Z M1329.828 249.223 C1322.186 249.223 1315.992 243.028 1315.992 235.387 1315.992 227.746 1322.186 221.551 1329.828 221.551 1337.469 221.551 1343.664 227.746 1343.664 235.387 1343.664 243.028 1337.469 249.223 1329.828 249.223 Z M1436.589 225.35 C1429.843 225.35 1424.373 219.879 1424.373 213.133 1424.373 206.387 1429.843 200.918 1436.589 200.918 1443.336 200.918 1448.804 206.387 1448.804 213.133 1448.804 219.879 1443.336 225.35 1436.589 225.35 Z M1917.462 201.545 C1916.053 201.58 1914.841 201.076 1914.543 199.512 L1904.951 178.527 1897.103 189.533 C1895.593 190.686 1893.552 191.177 1892.378 190.358 1890.536 188.827 1890.138 186.742 1891.554 185.633 L1901.8 171.473 1895.119 154.818 1873.761 184.217 C1872.388 185.419 1870.304 185.815 1869.13 184.996 1867.287 183.465 1867.53 181.538 1868.306 180.272 L1891.875 147.807 1880.933 122.68 1865.123 150.08 1855.996 119.801 1839.519 141.836 1855.218 178.721 C1855.794 179.476 1855.796 179.475 1855.681 180.209 1855.553 181.403 1854.775 182.672 1853.33 183.227 1851.978 183.739 1850.071 182.805 1848.962 181.389 L1834.82 147.869 1824.507 162.625 1831.349 178.641 C1831.925 179.396 1831.767 180.036 1831.746 180.727 1831.681 181.324 1830.906 182.589 1829.46 183.145 1828.108 183.657 1826.201 182.723 1825.689 181.371 L1819.851 168.752 1805.839 187.035 C1804.906 188.942 1802.977 188.7 1801.71 187.924 1799.803 186.99 1799.406 184.904 1800.98 183.154 L1814.353 164.713 1800.574 163.143 C1798.646 162.9 1797.559 160.792 1797.644 159.504 1797.887 157.576 1799.396 156.423 1801.324 156.666 L1819.052 158.68 1829.96 143.988 1794.001 139.854 C1791.98 139.654 1790.827 138.143 1791.07 136.215 1791.249 134.884 1792.778 133.042 1794.707 133.285 L1834.019 137.799 1850.541 115.858 1819.302 115.553 1840.55 92.787 1812.994 89.645 1789.447 121.418 C1788.607 123.282 1786.563 123.773 1784.72 122.242 1783.547 121.423 1783.056 119.382 1783.99 117.475 L1805.785 88.779 1788.15 86.723 1777.263 100.725 C1776.329 102.632 1774.288 103.123 1772.539 101.549 1771.272 100.773 1770.873 98.687 1772.404 96.844 L1780.251 85.838 1757.378 83.254 C1755.45 83.011 1754.247 81.637 1754.447 79.615 1754.647 77.594 1756.157 76.441 1758.085 76.684 L1781.093 79.32 1775.853 66.764 C1774.765 64.657 1775.605 62.792 1777.05 62.236 1779.157 61.148 1781.065 62.082 1781.419 64.074 L1788.9 80.248 1806.628 82.262 1791.773 49.412 C1791.376 47.326 1792.216 45.463 1793.662 44.908 1795.014 44.396 1796.943 44.639 1798.031 46.746 L1813.794 83.033 1841.255 86.219 1825.853 59.297 1856.246 66.119 1845.168 40.943 1805.855 36.43 C1803.927 36.187 1802.838 34.079 1803.017 32.748 1803.217 30.726 1804.634 29.619 1806.656 29.818 L1842.017 33.889 1835.335 17.233 1817.607 15.219 C1815.679 14.976 1814.526 13.465 1814.769 11.537 1814.854 10.249 1816.386 8.408 1818.408 8.608 L1832.091 10.221 1823.326 -10.691 C1822.194 -12.892 1823.034 -14.755 1824.429 -15.174 1826.472 -15.665 1828.401 -15.421 1828.892 -13.379 L1838.39 7.649 1846.929 -3.338 C1847.748 -4.511 1849.789 -5.002 1851.056 -4.226 1852.23 -3.407 1852.785 -1.96 1852.72 -1.363 1852.606 -0.629 1852.543 -0.033 1851.789 0.543 L1841.591 14.567 1848.318 31.315 1869.58 1.959 C1871.046 0.713 1873.133 0.316 1874.306 1.135 1875.573 1.911 1875.991 3.306 1875.906 4.594 1875.791 5.328 1875.726 5.926 1875.128 5.861 L1851.466 38.369 1862.501 63.453 1878.22 36.096 1887.345 66.373 1903.822 44.34 1888.216 7.412 C1887.064 5.903 1887.904 4.037 1890.011 2.949 1891.363 2.437 1893.363 3.328 1894.472 4.744 L1908.523 38.307 1918.834 23.551 1912.085 7.492 C1910.933 5.983 1911.775 4.119 1913.285 2.967 1915.234 2.519 1917.234 3.409 1917.652 4.805 L1923.49 17.424 1937.597 -0.904 C1938.437 -2.768 1940.459 -2.567 1941.632 -1.748 1942.899 -0.972 1943.454 0.473 1943.296 1.113 1943.276 1.804 1943.21 2.401 1942.455 2.977 L1929.041 21.326 1942.818 22.897 C1944.746 23.14 1945.855 24.557 1945.656 26.578 1945.456 28.6 1944.039 29.71 1942.017 29.51 L1924.382 27.451 1914.072 42.209 1949.435 46.279 C1951.363 46.522 1952.471 47.939 1952.271 49.961 1952.186 51.249 1950.656 53.091 1948.634 52.891 L1909.416 48.334 1892.896 70.276 1924.039 70.623 1902.886 93.346 1930.347 96.531 1953.896 64.756 C1954.83 62.849 1956.871 62.358 1958.621 63.932 1959.197 64.687 1959.868 65.4 1959.689 66.731 1959.625 67.328 1959.509 68.061 1959.445 68.658 L1937.513 97.303 1955.285 99.408 1966.171 85.408 C1966.968 83.451 1969.055 83.053 1970.898 84.584 1971.474 85.339 1972.05 86.093 1971.828 87.33 1971.807 88.021 1971.742 88.618 1971.031 89.287 L1963.091 100.338 1986.056 102.879 C1987.984 103.122 1989.094 104.539 1988.894 106.561 1988.694 108.582 1987.277 109.69 1985.255 109.49 L1962.341 106.813 1968.179 119.434 C1968.67 121.476 1967.736 123.383 1966.384 123.895 1964.277 124.983 1962.369 124.051 1961.878 122.008 L1954.441 105.928 1937.404 103.936 1951.568 136.764 C1952.059 138.806 1951.125 140.713 1949.773 141.225 1948.421 141.737 1946.4 141.537 1945.312 139.43 L1929.597 103.006 1902.043 99.863 1917.584 126.836 1887.189 120.012 1898.175 145.233 1937.486 149.746 C1939.507 149.946 1940.66 151.455 1940.418 153.383 1940.174 155.311 1938.707 156.557 1936.779 156.315 L1901.418 152.244 1908.101 168.901 1925.734 170.957 C1927.756 171.157 1928.908 172.666 1928.666 174.594 1928.487 175.925 1926.957 177.768 1925.029 177.526 L1911.25 175.955 1920.109 196.824 C1920.685 197.579 1920.665 198.27 1920.601 198.867 1920.487 199.601 1919.667 200.774 1918.912 201.35 1918.424 201.462 1917.932 201.533 1917.462 201.545 Z M1768.16 159.961 C1761.742 159.961 1756.539 154.756 1756.539 148.338 1756.539 141.92 1761.742 136.717 1768.16 136.717 1774.578 136.717 1779.781 141.92 1779.781 148.338 1779.781 154.756 1774.578 159.961 1768.16 159.961 Z M1867.05 133.641 L1879.464 111.897 1904.734 117.459 1892.039 95.412 1909.425 76.815 1883.535 76.535 1876.384 52.492 1863.281 74.215 1838.703 68.674 1851.396 90.721 1834.009 109.317 1859.21 109.576 1867.05 133.641 Z" fill="#ffffff" fill-opacity="1" stroke="none"/>
</svg>
